<svg xmlns="http://www.w3.org/2000/svg" width="16" height="16" viewBox="0 0 16 16" fill="none">
    <path d="M12.6667 7.33332H4.76008L7.18008 4.42666C7.29324 4.29051 7.34768 4.11499 7.33143 3.93871C7.31518 3.76242 7.22956 3.59982 7.09341 3.48666C6.95727 3.3735 6.78175 3.31906 6.60547 3.33531C6.42918 3.35156 6.26657 3.43718 6.15341 3.57332L2.82008 7.57332C2.79766 7.60514 2.7776 7.63856 2.76008 7.67332C2.76008 7.70666 2.76008 7.72666 2.71341 7.75999C2.6832 7.83643 2.66738 7.9178 2.66675 7.99999C2.66738 8.08218 2.6832 8.16355 2.71341 8.23999C2.71341 8.27332 2.71341 8.29332 2.76008 8.32666C2.7776 8.36142 2.79766 8.39484 2.82008 8.42666L6.15341 12.4267C6.2161 12.5019 6.29459 12.5624 6.38331 12.6039C6.47203 12.6454 6.56881 12.6668 6.66675 12.6667C6.82252 12.667 6.97347 12.6127 7.09341 12.5133C7.16092 12.4574 7.21672 12.3886 7.25762 12.3111C7.29852 12.2335 7.32372 12.1486 7.33177 12.0613C7.33982 11.974 7.33057 11.8859 7.30454 11.8022C7.27851 11.7185 7.23622 11.6407 7.18008 11.5733L4.76008 8.66666H12.6667C12.8436 8.66666 13.0131 8.59642 13.1382 8.4714C13.2632 8.34637 13.3334 8.1768 13.3334 7.99999C13.3334 7.82318 13.2632 7.65361 13.1382 7.52859C13.0131 7.40356 12.8436 7.33332 12.6667 7.33332Z" fill="white"/>
</svg>